<svg width="537" height="91" viewBox="0 0 537 91" fill="none" xmlns="http://www.w3.org/2000/svg">
<path d="M104.567 81.6091L104.565 9.19638L124.376 6.2056L135.849 6.20633L135.848 18.8547L117.537 18.8535L117.536 39.2504L135.847 30.0217L135.846 44.1513L117.535 53.494L117.535 84.1837L104.567 81.6091Z" fill="white"/>
<path d="M142.332 17.0319C142.332 10.081 146.199 6.20699 152.796 6.20741L167.24 6.20832C173.836 6.20874 177.817 10.0833 177.816 17.0341L177.816 18.9713L164.736 25.8074L164.737 18.7425L155.297 18.7419L155.296 38.683L177.815 27.0616L177.812 74.4644C177.812 81.4153 173.831 85.2893 167.235 85.2889L152.791 85.2879C146.194 85.2875 142.327 81.413 142.328 74.4621L142.328 67.0555L155.294 60.3333L155.294 72.7537L164.733 72.7543L164.735 47.9135L142.329 59.6488L142.332 17.0319Z" fill="white"/>
<path d="M222.463 6.21183L222.459 72.644L231.899 72.6446L231.903 6.21243L244.982 6.21326L244.978 74.2408C244.977 81.7614 241.338 85.2936 233.604 85.2931L223.482 85.2924C218.818 85.2921 216.089 82.5572 216.089 77.6574C216.089 82.5572 213.246 85.2918 208.583 85.2915L197.664 85.2908C191.068 85.2904 187.201 81.4159 187.202 74.465L187.206 6.20959L200.171 6.21041L200.167 72.6426L209.721 72.6432L209.725 6.21102L222.463 6.21183Z" fill="white"/>
<path d="M299.92 34.3621L299.921 18.4093L289.458 18.4086L289.456 39.4892L299.92 34.3621ZM312.43 43.2509L312.428 74.359C312.428 81.7657 308.674 85.2978 300.827 85.2973L276.943 85.2958L276.948 6.21529L301.855 6.21687C308.452 6.21729 312.432 10.0918 312.432 17.0427L312.431 33.6792C312.43 38.8069 310.838 41.8834 306.857 43.2506L312.43 43.2509ZM299.918 72.9908L299.919 47.5802L289.456 52.8212L289.454 72.9901L299.918 72.9908Z" fill="white"/>
<path d="M357.298 85.3009L344.333 85.3001L344.335 51.7991L334.781 56.6983L334.779 85.2995L321.814 85.2987L321.818 17.0433C321.819 10.0924 325.686 6.21838 332.282 6.2188L346.726 6.21971C353.323 6.22013 357.303 10.0946 357.303 17.0455L357.298 85.3009ZM344.336 37.8974L344.337 18.7539L334.784 18.7533L334.782 42.5687L344.336 37.8974Z" fill="white"/>
<path d="M389.429 38.1281L389.43 18.7568L379.877 18.7562L379.875 42.9134L389.429 38.1281ZM402.394 45.4217L392.84 50.3209L407.623 85.3041L394.089 85.3033L381.808 56.0176L379.874 57.043L379.873 85.3024L366.907 85.3015L366.912 6.221L391.819 6.22258C398.416 6.22299 402.396 10.0975 402.396 17.0484L402.394 45.4217Z" fill="white"/>
<path d="M434.644 34.3707L434.645 18.4178L424.182 18.4172L424.18 39.4977L434.644 34.3707ZM447.154 43.2595L447.152 74.3675C447.152 81.7742 443.398 85.3064 435.551 85.3059L411.667 85.3044L411.672 6.22384L436.579 6.22542C443.176 6.22584 447.156 10.1003 447.156 17.0512L447.155 33.6878C447.154 38.8155 445.562 41.892 441.581 43.2591L447.154 43.2595ZM434.642 72.9994L434.643 47.5887L424.18 52.8297L424.178 72.9987L434.642 72.9994Z" fill="white"/>
<path d="M487.814 85.3092L456.538 85.3072L456.543 6.22668L487.819 6.22867L487.819 18.877L469.508 18.8758L469.506 39.2727L487.818 30.044L487.817 44.1736L469.506 53.5163L469.504 72.6597L487.815 72.6609L487.814 85.3092Z" fill="white"/>
<path d="M518.267 38.1363L518.268 18.765L508.714 18.7644L508.713 42.9215L518.267 38.1363ZM531.232 45.4298L521.678 50.329L536.461 85.3123L522.927 85.3114L510.645 56.0258L508.712 57.0512L508.71 85.3105L495.745 85.3097L495.75 6.22917L520.657 6.23075C527.253 6.23117 531.234 10.1057 531.233 17.0566L531.232 45.4298Z" fill="white"/>
<path d="M104.567 81.6091L104.565 9.19638L124.376 6.2056L135.849 6.20633L135.848 18.8547L117.537 18.8535L117.536 39.2504L135.847 30.0217L135.846 44.1513L117.535 53.494L117.535 84.1837L104.567 81.6091Z" fill="#8162FF"/>
<path d="M142.332 17.0319C142.332 10.081 146.199 6.20699 152.796 6.20741L167.24 6.20832C173.836 6.20874 177.817 10.0833 177.816 17.0341L177.816 18.9713L164.736 25.8074L164.737 18.7425L155.297 18.7419L155.296 38.683L177.815 27.0616L177.812 74.4644C177.812 81.4153 173.831 85.2893 167.235 85.2889L152.791 85.2879C146.194 85.2875 142.327 81.413 142.328 74.4621L142.328 67.0555L155.294 60.3333L155.294 72.7537L164.733 72.7543L164.735 47.9135L142.329 59.6488L142.332 17.0319Z" fill="#8162FF"/>
<path d="M222.463 6.21183L222.459 72.644L231.899 72.6446L231.903 6.21243L244.982 6.21326L244.978 74.2408C244.977 81.7614 241.338 85.2936 233.604 85.2931L223.482 85.2924C218.818 85.2921 216.089 82.5572 216.089 77.6574C216.089 82.5572 213.246 85.2918 208.583 85.2915L197.664 85.2908C191.068 85.2904 187.201 81.4159 187.202 74.465L187.206 6.20959L200.171 6.21041L200.167 72.6426L209.721 72.6432L209.725 6.21102L222.463 6.21183Z" fill="#8162FF"/>
<path fill-rule="evenodd" clip-rule="evenodd" d="M7.49557 20.3784C7.49535 23.7976 8.85488 27.0769 11.2751 29.4948C13.6952 31.9127 16.9778 33.2711 20.4007 33.2714C23.8236 33.2716 27.1064 31.9135 29.5268 29.4959C31.9473 27.0783 33.3073 23.7992 33.3075 20.38C33.3077 16.9608 31.9482 13.6816 29.528 11.2637C27.1078 8.84577 23.8252 7.48728 20.4024 7.48707C16.9795 7.48685 13.6967 8.84492 11.2762 11.2625C8.85573 13.6801 7.49579 16.9592 7.49557 20.3784ZM20.4002 40.7571C16.0326 40.7564 11.7804 39.3553 8.26946 36.76C4.75848 34.1648 2.17405 30.5124 0.896401 26.3402C-0.381249 22.1681 -0.284659 17.6964 1.17196 13.5832C2.62858 9.46996 5.36832 5.93233 8.98809 3.49078C12.6079 1.04923 16.9165 -0.167317 21.2802 0.0201149C25.6438 0.207547 29.8321 1.78907 33.2287 4.53199C36.6253 7.27491 39.0509 11.0344 40.1487 15.2574C41.2465 19.4803 40.9585 23.9437 39.327 27.9909L47.3534 33.3479C47.2945 33.5355 47.239 33.724 47.1868 33.9135L45.9042 38.4881L42.9649 40.4508L34.6888 34.9275C31.0082 38.5287 25.9623 40.7575 20.4002 40.7571ZM7.4924 70.4083C7.49261 66.989 8.85255 63.71 11.273 61.2924C13.6935 58.8748 16.9763 57.5167 20.3992 57.5169C23.8221 57.5171 27.1046 58.8756 29.5248 61.2935C31.945 63.7114 33.3045 66.9907 33.3043 70.4099C33.3041 73.8291 31.9442 77.1082 29.5237 79.5258C27.1032 81.9434 23.8204 83.3014 20.3975 83.3012C16.9747 83.301 13.6921 81.9425 11.2719 79.5246C8.8517 77.1067 7.49218 73.8275 7.4924 70.4083ZM20.3997 50.0312C16.0358 50.0314 11.787 51.4294 8.27737 54.02C4.76772 56.6106 2.1822 60.2572 0.900553 64.4242C-0.381092 68.5911 -0.291302 73.0588 1.15673 77.171C2.60477 81.2832 5.33473 84.8231 8.94564 87.2709C12.5565 89.7187 16.8581 90.9453 21.2184 90.7706C25.5788 90.5959 29.7681 89.029 33.1711 86.3001C36.5741 83.5712 39.0114 79.8241 40.125 75.6093C41.2386 71.3944 40.9698 66.9339 39.3581 62.8829L124.483 6.19224L116.564 6.8444C105.398 8.01745 94.5839 11.4345 84.7734 16.8899L59.1687 31.1113C58.2072 31.6478 57.3617 32.3695 56.6813 33.2346C56.0009 34.0998 55.4992 35.0912 55.205 36.1514L53.0979 43.687L34.754 55.9375C30.9396 52.1497 25.7781 50.026 20.3997 50.0312ZM59.067 59.7235L59.1669 59.7817L84.7697 74.0063C94.5796 79.463 105.393 82.8814 116.559 84.0559L115.416 78.4351L104.596 71.6465L72.9394 50.4504L59.067 59.7235Z" fill="#8162FF"/>
</svg>
